{
    "asset" : {
        "generator" : "Khronos glTF Blender I/O v1.6.16",
        "version" : "2.0"
    },
    "scene" : 0,
    "scenes" : [
        {
            "name" : "Scene",
            "nodes" : [
                0,
                1
            ]
        }
    ],
    "nodes" : [
        {
            "mesh" : 0,
            "name" : "Body",
            "translation" : [
                0,
                0,
                17.907821655273438
            ]
        },
        {
            "mesh" : 1,
            "name" : "Dial",
            "translation" : [
                0,
                0,
                17.907821655273438
            ]
        }
    ],
    "materials" : [
        {
            "doubleSided" : true,
            "name" : "knobMaterial",
            "pbrMetallicRoughness" : {
                "baseColorFactor" : [
                    0.00932611245661974,
                    0.00932611245661974,
                    0.00932611245661974,
                    1
                ],
                "metallicFactor" : 0.8999999761581421,
                "roughnessFactor" : 0.5
            }
        },
        {
            "doubleSided" : true,
            "name" : "knobTop",
            "pbrMetallicRoughness" : {
                "baseColorFactor" : [
                    0,
                    0,
                    0,
                    1
                ],
                "roughnessFactor" : 0.30000001192092896
            }
        },
        {
            "doubleSided" : true,
            "name" : "dialMaterial",
            "pbrMetallicRoughness" : {
                "baseColorFactor" : [
                    0.7813762426376343,
                    0.7280016541481018,
                    0.6120421290397644,
                    1
                ],
                "metallicFactor" : 0,
                "roughnessFactor" : 0.5
            }
        }
    ],
    "meshes" : [
        {
            "name" : "Cylinder.018",
            "primitives" : [
                {
                    "attributes" : {
                        "POSITION" : 0,
                        "NORMAL" : 1,
                        "TEXCOORD_0" : 2
                    },
                    "indices" : 3,
                    "material" : 0
                },
                {
                    "attributes" : {
                        "POSITION" : 4,
                        "NORMAL" : 5,
                        "TEXCOORD_0" : 6
                    },
                    "indices" : 7,
                    "material" : 1
                }
            ]
        },
        {
            "name" : "Cube",
            "primitives" : [
                {
                    "attributes" : {
                        "POSITION" : 8,
                        "NORMAL" : 9,
                        "TEXCOORD_0" : 10
                    },
                    "indices" : 11,
                    "material" : 2
                }
            ]
        }
    ],
    "accessors" : [
        {
            "bufferView" : 0,
            "componentType" : 5126,
            "count" : 1462,
            "max" : [
                0.8109782934188843,
                2,
                -17.105676651000977
            ],
            "min" : [
                -0.8109782934188843,
                0,
                -18.728715896606445
            ],
            "type" : "VEC3"
        },
        {
            "bufferView" : 1,
            "componentType" : 5126,
            "count" : 1462,
            "type" : "VEC3"
        },
        {
            "bufferView" : 2,
            "componentType" : 5126,
            "count" : 1462,
            "type" : "VEC2"
        },
        {
            "bufferView" : 3,
            "componentType" : 5123,
            "count" : 2808,
            "type" : "SCALAR"
        },
        {
            "bufferView" : 4,
            "componentType" : 5126,
            "count" : 86,
            "max" : [
                0.7114076018333435,
                2,
                -17.205312728881836
            ],
            "min" : [
                -0.7114076018333435,
                2,
                -18.629077911376953
            ],
            "type" : "VEC3"
        },
        {
            "bufferView" : 5,
            "componentType" : 5126,
            "count" : 86,
            "type" : "VEC3"
        },
        {
            "bufferView" : 6,
            "componentType" : 5126,
            "count" : 86,
            "type" : "VEC2"
        },
        {
            "bufferView" : 7,
            "componentType" : 5123,
            "count" : 252,
            "type" : "SCALAR"
        },
        {
            "bufferView" : 8,
            "componentType" : 5126,
            "count" : 30,
            "max" : [
                0.8188216686248779,
                2.0027732849121094,
                -17.84979820251465
            ],
            "min" : [
                0.0078207366168499,
                0.5137121677398682,
                -18.02885627746582
            ],
            "type" : "VEC3"
        },
        {
            "bufferView" : 9,
            "componentType" : 5126,
            "count" : 30,
            "type" : "VEC3"
        },
        {
            "bufferView" : 10,
            "componentType" : 5126,
            "count" : 30,
            "type" : "VEC2"
        },
        {
            "bufferView" : 11,
            "componentType" : 5123,
            "count" : 48,
            "type" : "SCALAR"
        }
    ],
    "bufferViews" : [
        {
            "buffer" : 0,
            "byteLength" : 17544,
            "byteOffset" : 0
        },
        {
            "buffer" : 0,
            "byteLength" : 17544,
            "byteOffset" : 17544
        },
        {
            "buffer" : 0,
            "byteLength" : 11696,
            "byteOffset" : 35088
        },
        {
            "buffer" : 0,
            "byteLength" : 5616,
            "byteOffset" : 46784
        },
        {
            "buffer" : 0,
            "byteLength" : 1032,
            "byteOffset" : 52400
        },
        {
            "buffer" : 0,
            "byteLength" : 1032,
            "byteOffset" : 53432
        },
        {
            "buffer" : 0,
            "byteLength" : 688,
            "byteOffset" : 54464
        },
        {
            "buffer" : 0,
            "byteLength" : 504,
            "byteOffset" : 55152
        },
        {
            "buffer" : 0,
            "byteLength" : 360,
            "byteOffset" : 55656
        },
        {
            "buffer" : 0,
            "byteLength" : 360,
            "byteOffset" : 56016
        },
        {
            "buffer" : 0,
            "byteLength" : 240,
            "byteOffset" : 56376
        },
        {
            "buffer" : 0,
            "byteLength" : 96,
            "byteOffset" : 56616
        }
    ],
    "buffers" : [
        {
            "byteLength" : 56712,
            "uri" : "data:application/octet-stream;base64,"
        }
    ]
}
